<svg xmlns="http://www.w3.org/2000/svg" viewBox="0 0 164 40" width="164" height="40">
	<style>
		tspan { white-space:pre }
		.shp0 { opacity: 0.651;fill: #2b50ed } 
		.txt1 { font-size: 18px;fill: #000000;font-family: "DejaVu Sans";font-weight: 400 } 
		.shp2 { opacity: 0.851;fill: #2b50ed } 
		.shp3 { fill: #2b50ed } 
	</style>
	<g id="Design">
		<g id="Developers">
			<g id="#1">
				<g id="Top-Header">
					<g id="logo">
						<g id="Icon">
							<path id="Fill-138" fill-rule="evenodd" class="shp0" d="M20.19 0C19.09 0 17.8 0.08 16.92 0.22C16.94 0.22 16.97 0.22 16.99 0.22C17.21 0.19 17.42 0.17 17.63 0.16C17.75 0.15 17.88 0.13 18 0.13C18.33 0.11 18.66 0.1 18.98 0.1C20.16 0.1 21.3 0.18 22.36 0.36C22.72 0.43 23.06 0.5 23.39 0.59C23.39 0.59 23.39 0.59 23.39 0.59C30.89 2.3 36.71 8.36 36.71 16.15C36.71 16.21 36.71 16.28 36.71 16.34C36.71 16.4 36.71 16.45 36.71 16.51C36.71 16.61 36.7 16.72 36.7 16.82C36.7 16.92 36.69 17.01 36.69 17.1C36.68 17.25 36.67 17.39 36.66 17.54C36.65 17.71 36.63 17.88 36.62 18.04C36.61 18.13 36.6 18.21 36.59 18.29C36.57 18.52 36.54 18.75 36.5 18.98C36.5 19.01 36.49 19.03 36.49 19.06C36.28 20.45 35.91 21.78 35.41 23.03C35.4 23.04 35.4 23.06 35.39 23.07C35.3 23.29 35.2 23.52 35.1 23.74C35.07 23.8 35.04 23.87 35.01 23.94C34.93 24.1 34.85 24.26 34.77 24.42C34.72 24.52 34.67 24.61 34.62 24.7C34.55 24.83 34.48 24.96 34.41 25.09C34.35 25.2 34.29 25.31 34.22 25.41C34.16 25.52 34.09 25.63 34.02 25.73C33.95 25.85 33.87 25.97 33.8 26.08C33.74 26.17 33.67 26.26 33.61 26.35C33.52 26.48 33.44 26.6 33.35 26.72C33.29 26.8 33.24 26.87 33.18 26.95C33.08 27.08 32.98 27.21 32.87 27.33C32.87 27.34 32.68 27.57 32.41 27.88C32.39 27.9 32.38 27.92 32.36 27.94C32.28 28.03 32.19 28.12 32.1 28.22C32.01 28.31 31.93 28.39 31.86 28.46C31.84 28.48 31.83 28.49 31.82 28.51C31.79 28.53 31.76 28.56 31.73 28.58C31.62 28.69 31.52 28.78 31.44 28.86C31.42 28.88 31.4 28.89 31.39 28.91C31.17 29.1 31.04 29.19 31.04 29.19C31.05 29.19 31.05 29.18 31.05 29.18C28.97 30.83 26.13 31.64 23.83 31.64C17.22 31.64 12.51 25.72 14.96 19.49C16.24 16.67 17.92 15.56 19.32 15.36C19.47 15.34 19.62 15.33 19.76 15.33C19.87 15.33 19.98 15.34 20.09 15.35C20.12 15.36 20.16 15.36 20.19 15.37C20.27 15.38 20.34 15.4 20.41 15.42C20.46 15.43 20.5 15.44 20.54 15.45C20.63 15.48 20.72 15.51 20.81 15.54C20.81 15.54 20.81 15.54 20.82 15.54C20.9 15.58 20.98 15.61 21.04 15.64C21.04 15.64 20.97 15.6 20.97 15.6L20.71 15.48C20.68 15.47 20.66 15.46 20.63 15.45C19.86 15.13 18.9 14.98 17.9 14.98C14.45 14.98 10.21 17.08 8.31 22.77C7.96 23.77 7.81 24.87 7.81 25.96C7.81 28.11 8.46 30.41 9.81 32.46C12.95 37.4 18.5 39.95 24.14 39.95C32.68 39.95 41.94 34.07 42.01 21.62C42.09 9.36 32.58 0 20.19 0Z" />
							<text id="ToDo Nikolas " style="transform: matrix(1,0,0,1,46,28.143)" >
								<tspan x="0" y="0" class="txt1">ToDo Nikolas</tspan>
							</text>
							<path id="Fill-162" fill-rule="evenodd" class="shp2" d="M30 7.24C29.87 7.13 29.75 7 29.62 6.89C28.44 5.86 27.12 5.01 25.7 4.32C19.56 1.4 11.2 1.57 5.21 5.48C5.2 5.48 5.2 5.48 5.2 5.49C4.71 5.94 4.26 6.42 3.87 6.91C3.68 7.14 3.48 7.39 3.3 7.64C3.06 7.97 2.94 8.39 3.03 8.78C3.11 9.15 3.34 9.51 3.82 9.7C3.93 9.75 4.11 9.72 4.21 9.65C4.46 9.47 4.86 9.19 5.21 8.99C5.53 8.79 5.86 8.59 6.19 8.41C6.69 8.14 7.25 7.86 7.86 7.59C7.93 7.56 8 7.53 8.08 7.5C10.23 6.58 13.06 5.78 16.48 5.78C16.99 5.78 17.5 5.8 18 5.84C18.02 5.84 18.04 5.84 18.06 5.84C22.75 6.3 26.24 8.35 28.68 11.15C30.98 13.79 31.73 16.59 31.73 19.14C31.73 21.71 31.16 23.78 30.2 25.38C28.59 28.08 25.49 29.71 23.1 29.68C19.86 29.64 17.36 27.43 17.36 24.49C17.32 21.65 19.67 20.13 20.79 19.45C21.01 19.31 21.2 19.16 21.37 19C21.53 18.87 21.66 18.73 21.78 18.58C21.8 18.56 21.82 18.54 21.84 18.51C22.1 18.17 22.24 17.81 22.24 17.43C22.24 17.01 22.12 16.65 21.9 16.35C21.67 16.07 21.41 15.83 21.11 15.68C21.09 15.66 21.07 15.65 21.04 15.64C20.98 15.61 20.9 15.58 20.82 15.54C20.81 15.54 20.81 15.54 20.81 15.54C20.72 15.51 20.63 15.48 20.54 15.45C20.5 15.44 20.46 15.43 20.41 15.42C20.34 15.4 20.27 15.38 20.19 15.37C20.16 15.36 20.12 15.36 20.09 15.35C19.98 15.34 19.87 15.33 19.76 15.33C19.62 15.33 19.47 15.34 19.32 15.36C18.99 15.41 18.64 15.51 18.29 15.67C18.25 15.69 18.21 15.71 18.17 15.73C17.06 16.27 15.91 17.41 14.96 19.49C12.51 25.72 17.22 31.64 23.83 31.64C26.13 31.64 28.97 30.83 31.05 29.18C34.12 26.16 37.56 14.5 30 7.24Z" />
							<path id="Fill-164" fill-rule="evenodd" class="shp3" d="M36.71 16.34C36.71 16.28 36.71 16.21 36.71 16.15C36.71 8.36 30.89 2.3 23.39 0.59C23.39 0.59 23.39 0.59 23.39 0.59C23.22 0.54 23.06 0.5 22.88 0.47C22.71 0.43 22.54 0.4 22.36 0.36C21.3 0.18 20.16 0.1 18.98 0.1C18.66 0.1 18.33 0.11 18 0.13C17.88 0.13 17.75 0.15 17.63 0.16C17.42 0.17 17.21 0.19 16.99 0.22C15.09 0.44 13.12 0.96 11.26 1.71C11.14 1.77 11.01 1.82 10.88 1.87C10.81 1.91 10.74 1.94 10.66 1.97C8.68 2.84 6.85 3.99 5.37 5.32C5.37 5.32 5.37 5.33 5.37 5.33C5.31 5.38 5.26 5.43 5.21 5.48C11.2 1.57 19.56 1.4 25.7 4.32C27.12 5.01 28.44 5.86 29.62 6.89C29.75 7 29.87 7.13 30 7.24C30.13 7.37 30.25 7.49 30.37 7.62C37.44 14.89 34.07 26.21 31.05 29.18C31.05 29.18 31.05 29.19 31.04 29.19C31.04 29.19 31.17 29.1 31.39 28.91C31.39 28.91 31.39 28.91 31.39 28.91C31.4 28.89 31.42 28.88 31.44 28.86L31.44 28.86C31.52 28.78 31.62 28.69 31.73 28.58C31.76 28.56 31.79 28.53 31.82 28.51C31.83 28.49 31.84 28.48 31.86 28.46C31.93 28.39 32.01 28.31 32.1 28.22C32.19 28.12 32.27 28.03 32.35 27.94C32.36 27.94 32.36 27.94 32.36 27.94C32.36 27.93 32.36 27.93 32.36 27.93C32.38 27.91 32.4 27.89 32.41 27.88C32.68 27.57 32.87 27.34 32.87 27.33L32.87 27.33C32.98 27.21 33.08 27.08 33.18 26.95C33.24 26.87 33.29 26.8 33.35 26.72C33.44 26.6 33.52 26.48 33.61 26.35C33.67 26.26 33.74 26.17 33.8 26.08C33.87 25.97 33.95 25.85 34.02 25.73C34.09 25.63 34.16 25.52 34.22 25.41C34.29 25.31 34.35 25.2 34.41 25.09C34.48 24.96 34.55 24.83 34.62 24.7C34.67 24.61 34.72 24.52 34.77 24.42C34.85 24.26 34.93 24.1 35.01 23.94C35.04 23.87 35.07 23.8 35.1 23.74C35.2 23.52 35.3 23.29 35.39 23.07C35.4 23.06 35.4 23.04 35.41 23.03C35.91 21.78 36.28 20.45 36.49 19.06C36.49 19.03 36.5 19.01 36.5 18.98C36.54 18.75 36.57 18.52 36.59 18.29C36.6 18.21 36.61 18.13 36.62 18.04C36.63 17.88 36.65 17.71 36.66 17.54C36.67 17.39 36.68 17.25 36.69 17.1C36.69 17.01 36.7 16.92 36.7 16.82C36.7 16.72 36.71 16.61 36.71 16.51C36.71 16.45 36.71 16.4 36.71 16.34Z" />
						</g>
					</g>
				</g>
			</g>
		</g>
	</g>
</svg>